<svg width="1567" height="260" viewBox="0 0 1567 260" fill="none" xmlns="http://www.w3.org/2000/svg">
<path d="M417.132 7.55999C418.672 8.95999 418.392 10.64 417.972 12.6C417.272 15.4 415.592 17.78 414.192 20.16C402.012 40.18 387.872 59.08 374.292 78.12C355.672 104.44 337.752 131.32 322.492 159.74C321.092 162.4 317.732 164.78 320.952 168.98C322.632 171.08 313.812 178.36 310.732 177.38C307.652 176.4 307.092 173.74 307.932 171.22C308.912 167.72 310.312 164.36 311.992 161.14C322.352 140.42 334.812 120.82 347.832 101.5C364.492 77 382.692 53.48 400.052 29.4C401.592 27.3 403.132 25.34 404.532 23.1C405.092 22.4 406.212 21.42 404.952 20.58C403.832 19.88 402.992 20.86 402.292 21.42C395.992 26.46 389.832 31.5 383.672 36.54C360.992 54.88 338.452 73.36 315.772 91.7C313.672 93.52 311.292 95.2 308.912 96.6C304.432 98.98 301.072 96.88 301.072 91.98C301.072 88.48 302.612 85.4 304.292 82.6C310.172 72.52 316.192 62.72 322.072 52.64C325.292 47.04 328.232 41.3 331.312 35.7C331.872 34.58 333.132 33.18 331.732 32.34C330.752 31.64 329.632 33.32 328.792 34.16C322.212 40.32 315.912 46.76 309.892 53.62C294.212 71.12 279.932 89.74 265.652 108.36C264.812 109.34 264.112 110.46 263.272 111.44C262.572 112.14 261.452 112.98 260.612 112.42C259.492 111.72 259.352 110.18 259.912 108.92C260.752 107.38 261.732 105.84 262.712 104.3C281.192 76.86 302.192 51.52 326.132 28.42C328.092 26.46 330.192 24.5 332.852 23.38C334.952 22.4 337.192 21.28 339.292 23.24C341.112 24.92 342.092 27.02 341.392 29.54C340.272 33.18 339.152 36.96 337.752 40.46C332.012 53.76 324.172 65.94 316.892 78.4C315.912 80.36 313.812 81.9 314.652 84.56C316.472 83.44 318.572 82.32 320.392 81.06C345.032 62.72 368.412 42.98 392.072 23.38C397.252 19.04 402.432 14.84 407.612 10.64C409.012 9.51999 410.552 8.54 412.232 7.69999C413.772 6.85999 415.452 5.88 417.132 7.55999ZM453.162 75.32C454.142 75.88 453.862 76.58 453.302 77.14C452.602 77.98 452.042 78.96 451.342 79.52C441.542 87.5 430.622 93.24 417.882 93.66C415.082 93.8 413.822 94.64 412.282 96.46C408.222 101.5 403.742 106.26 398.142 109.62C395.762 111.16 393.382 112.7 390.722 113.68C386.802 115.08 382.602 115.78 379.102 112.56C375.742 109.48 376.582 105.42 377.422 101.78C377.982 98.98 379.242 96.32 380.642 93.94C387.082 82.32 394.922 71.82 404.582 62.72C408.642 59.08 413.122 56.14 418.442 54.6C421.802 53.62 425.162 53.76 427.962 56C429.362 56.98 430.202 58.24 429.642 59.92C429.082 62.16 427.402 61.6 425.162 60.76C421.802 60.48 418.442 62.16 415.362 64.68C402.482 75.04 392.962 88.06 385.822 102.9C384.982 104.44 383.862 106.26 385.402 107.8C386.942 109.2 389.042 108.64 390.582 107.94C397.862 104.86 403.742 99.96 408.642 93.8C409.482 92.68 410.042 91.42 409.482 90.16C405.422 81.76 411.162 76.72 415.922 71.26C416.902 70.14 418.162 69.16 419.422 68.18C421.102 66.92 422.922 65.66 425.022 67.2C427.262 68.88 426.842 71.12 425.722 73.36C423.762 77.28 421.942 81.2 419.842 85.12C419.282 86.24 418.162 87.64 418.722 88.62C419.562 90.02 421.522 89.6 422.922 89.32C431.182 87.78 438.742 84.84 445.462 79.8C447.562 78.12 449.662 76.86 451.762 75.32C452.182 75.18 452.882 75.04 453.162 75.32ZM545.278 75.04C546.958 76.72 544.018 78.4 542.758 79.66C531.418 91.84 518.538 101.92 502.718 107.8C501.738 108.22 500.758 108.36 499.778 108.64C494.598 110.18 489.418 111.02 485.358 106.68C481.298 102.34 483.398 97.58 485.358 92.96C488.998 84.28 495.018 77.28 500.618 69.86C501.178 69.02 501.878 68.18 502.438 67.34C502.998 66.64 504.258 65.8 503.558 64.96C502.718 63.98 501.878 65.24 501.178 65.8C493.338 72.94 485.218 79.66 476.398 85.54C472.058 88.48 467.718 91.28 462.678 92.4C456.798 93.8 453.158 92.4 451.198 88.62C449.098 84.7 450.218 76.16 453.298 73.36C454.838 71.96 455.958 72.66 456.798 74.34C457.638 76.16 456.518 77.84 456.658 79.24C456.238 86.52 458.198 88.2 464.638 85.96C470.798 83.72 476.118 80.08 481.298 76.16C488.158 70.84 495.018 65.38 501.878 59.92C503.138 58.94 504.258 57.96 505.658 57.12C507.618 56.14 509.578 54.32 511.958 56.14C514.758 58.24 513.078 60.9 511.958 63C509.018 69.16 504.818 74.48 500.898 79.8C497.118 84.98 493.198 90.16 490.538 96.04C487.318 103.18 488.858 105.28 496.838 105C500.898 105 504.258 103.18 507.618 101.5C519.938 95.2 530.718 86.94 540.658 77.42C541.918 76.16 543.598 73.22 545.278 75.04ZM602.322 75.32C603.302 75.88 603.022 76.58 602.462 77.14C601.762 77.98 601.202 78.96 600.502 79.52C590.702 87.5 579.782 93.24 567.042 93.66C564.242 93.8 562.982 94.64 561.442 96.46C557.382 101.5 552.902 106.26 547.302 109.62C544.922 111.16 542.542 112.7 539.882 113.68C535.962 115.08 531.762 115.78 528.262 112.56C524.902 109.48 525.742 105.42 526.582 101.78C527.142 98.98 528.402 96.32 529.802 93.94C536.242 82.32 544.082 71.82 553.742 62.72C557.802 59.08 562.282 56.14 567.602 54.6C570.962 53.62 574.322 53.76 577.122 56C578.522 56.98 579.362 58.24 578.802 59.92C578.242 62.16 576.562 61.6 574.322 60.76C570.962 60.48 567.602 62.16 564.522 64.68C551.642 75.04 542.122 88.06 534.982 102.9C534.142 104.44 533.022 106.26 534.562 107.8C536.102 109.2 538.202 108.64 539.742 107.94C547.022 104.86 552.902 99.96 557.802 93.8C558.642 92.68 559.202 91.42 558.642 90.16C554.582 81.76 560.322 76.72 565.082 71.26C566.062 70.14 567.322 69.16 568.582 68.18C570.262 66.92 572.082 65.66 574.182 67.2C576.422 68.88 576.002 71.12 574.882 73.36C572.922 77.28 571.102 81.2 569.002 85.12C568.442 86.24 567.322 87.64 567.882 88.62C568.722 90.02 570.682 89.6 572.082 89.32C580.342 87.78 587.902 84.84 594.622 79.8C596.722 78.12 598.822 76.86 600.922 75.32C601.342 75.18 602.042 75.04 602.322 75.32ZM668.958 74.34C669.518 76.16 667.838 77 666.438 77.7C657.058 82.04 648.518 87.92 640.538 94.36C634.238 99.26 627.938 104.3 621.778 109.2C619.258 111.16 617.578 113.82 616.038 116.48C608.478 129.36 600.918 142.24 593.218 154.98C590.138 160.3 586.358 165.34 581.878 169.68C579.358 171.92 576.698 173.74 573.478 175.14C568.998 176.96 564.798 176.54 561.298 173.32C557.378 169.82 557.378 165.2 559.058 160.58C561.718 153.58 567.178 148.68 572.358 143.64C583.698 132.72 596.018 122.78 608.618 113.54C617.438 107.1 620.938 97.16 627.378 89.32C627.658 88.9 627.658 88.2 627.518 87.92C626.678 86.94 626.118 88.06 625.838 88.48C620.098 93.66 614.638 99.26 608.478 103.88C604.138 107.1 599.658 110.32 594.618 112.28C586.358 115.22 581.458 111.16 582.578 102.48C583.138 98.56 584.538 95.06 586.778 91.84C596.298 78.12 608.198 66.78 622.618 58.24C626.958 55.86 631.438 53.9 636.478 54.04C642.918 54.04 646.838 56.84 646.978 61.74C647.118 63.42 646.838 64.96 645.298 65.66C643.478 66.36 642.358 65.1 641.938 63.56C641.098 60.34 639.138 60.48 636.618 61.18C633.538 61.88 630.598 62.86 627.938 64.54C614.078 72.94 602.458 83.72 593.218 97.02C591.118 100.1 587.478 104.16 590.418 107.24C592.938 109.62 597.138 106.12 599.938 104.3C612.258 96.46 622.478 86.24 632.698 76.16C634.518 74.34 636.478 72.52 638.298 70.7C639.418 69.44 640.958 68.74 642.358 69.86C644.038 70.98 643.338 72.52 642.498 73.92C640.958 76.58 639.558 79.24 637.878 81.9C635.778 85.12 633.538 88.34 631.578 91.56C630.878 92.68 628.778 94.08 630.458 95.48C631.438 96.18 632.698 94.64 633.678 93.8C640.958 87.78 648.658 82.04 656.918 77.14C659.298 75.74 661.818 74.48 664.338 73.22C666.158 72.38 668.118 72.1 668.958 74.34ZM603.998 125.3C604.418 124.6 604.838 124.04 604.418 123.34C603.718 122.22 603.158 123.34 602.738 123.62C595.038 129.5 587.618 135.66 580.618 142.24C577.118 145.46 573.618 148.82 570.398 152.32C568.018 154.84 565.078 157.36 563.398 160.3C563.118 161 562.838 161.7 562.698 162.4C562.278 164.92 562.698 167.72 564.518 169.12C566.058 170.52 568.298 170.1 569.978 169.4C574.178 167.72 577.398 164.64 580.198 161.28C589.158 150.08 596.158 137.34 603.998 125.3ZM715.537 74.9C717.077 76.02 715.817 77.14 715.117 78.12C711.057 84.14 705.457 88.9 699.857 93.38C687.397 103.32 673.537 110.6 657.857 113.82C650.017 115.36 645.117 111.16 645.397 103.32C645.117 99.96 646.517 97.02 648.197 94.08C655.197 81.2 664.017 69.86 675.357 60.62C678.717 57.68 682.637 55.72 686.837 54.46C689.777 53.48 692.717 53.76 694.537 56.56C696.077 59.08 695.657 61.88 693.977 64.54C692.857 66.36 691.177 67.62 689.497 68.74C684.877 72.1 679.557 74.48 673.957 75.18C669.617 75.74 666.957 77.84 664.577 80.92C660.657 85.96 656.877 91.14 653.937 96.88C652.117 100.38 649.877 104.44 652.677 107.8C655.057 110.6 659.117 109.76 662.897 109.06C677.457 106.12 689.637 98.7 700.277 88.48C704.477 84.42 708.537 80.08 712.877 75.88C713.437 75.32 714.417 74.2 715.537 74.9ZM678.017 66.78C677.737 67.2 676.897 68.04 677.037 68.6C677.317 69.44 679.137 68.88 679.837 68.74C681.937 67.9 684.317 66.78 686.137 65.38C687.257 64.68 688.377 63.84 689.077 62.72C689.357 62.44 689.777 61.74 689.917 61.32C689.917 61.18 689.917 61.18 689.917 61.04C689.777 60.34 688.657 60.34 688.237 60.48C685.997 61.46 683.757 62.58 681.797 63.98C680.537 64.82 679.137 65.66 678.017 66.78ZM824.2 76.72C826.02 78.54 822.66 80.36 821.12 81.9C808.24 94.64 793.68 104.3 775.9 108.92C775.34 109.06 774.92 109.34 774.5 109.34C770.02 110.04 765.4 110.18 762.32 106.26C759.38 102.2 761.06 98 763.02 93.94C763.86 92.12 766.8 90.72 765.4 88.9C764.7 88.06 762.04 90.44 760.5 91.56C756.16 94.64 751.96 98 747.62 101.36C745.52 103.04 743.42 104.86 741.04 102.34C738.8 99.96 741.18 98 742.16 96.18C744.68 91.98 747.9 88.2 751.26 84.56C754.2 81.34 757.14 78.12 759.94 74.76C760.78 73.92 762.46 73.22 761.2 71.82C760.92 71.4 759.38 72.1 758.54 72.52C747.34 77.98 737.4 85.4 727.74 93.1C720.32 99.12 712.48 104.58 703.66 108.36C701.56 109.34 699.46 110.18 697.22 110.88C695.68 111.44 694.14 111.02 693.44 109.34C692.74 107.66 693.16 106.12 694.7 105.28C696.38 104.16 698.34 103.32 700.16 102.48C713.32 96.04 724.94 87.78 734.74 76.86C736.7 74.76 738.38 72.52 739.92 70.14C741.46 67.62 744.68 64.4 742.16 61.88C739.64 59.22 736.14 62.16 733.48 63.98C729.98 66.22 726.76 68.74 723.4 71.12C721.58 72.38 719.76 75.46 717.66 72.94C715.98 70.84 718.64 68.74 720.04 67.2C724.38 62.58 729 58.52 734.88 56.28C738.8 54.74 743.14 53.76 746.64 56.98C750.14 60.2 749.16 64.4 747.48 68.32C747.06 69.58 746.36 70.7 745.94 71.82C745.52 72.8 744.26 73.64 745.38 74.48C745.66 74.76 747.06 74.2 747.76 73.78C751.82 71.4 755.74 68.88 760.22 67.62C762.46 66.92 764.7 65.94 766.66 68.04C768.76 70.42 767.64 72.8 766.24 75.04C764.98 77 763.58 78.96 762.32 80.92C761.62 81.9 760.92 83.02 760.22 84C759.8 84.56 758.68 85.96 760.22 86.1C760.92 86.24 761.62 85.54 762.04 85.12C763.86 83.58 765.96 82.6 767.92 81.34C770.02 80.08 772.12 78.82 774.22 77.56C778.56 75.18 782.9 72.8 787.24 70.42C792.7 67.62 798.16 64.96 803.76 62.58C807.96 60.76 812.3 59.22 816.64 57.96C819.16 57.12 822.1 55.3 823.22 58.66C824.34 61.74 820.56 62.02 818.74 62.72C806.98 67.34 795.78 73.22 785.7 80.78C779.4 85.4 773.24 90.16 769.04 96.88C767.78 98.7 765.82 100.66 767.08 103.04C768.48 105.56 771.14 105 774.5 105C778.56 104.86 783.46 103.18 788.22 101.22C800.12 96.32 809.92 88.34 819.02 79.52C820.56 78.12 822.24 74.62 824.2 76.72ZM895.755 75.6C897.156 77.28 894.495 78.54 893.376 79.66C884.135 89.6 872.796 96.74 861.176 103.46C856.976 105.84 852.355 107.66 848.156 109.9C845.635 111.16 843.255 111.44 840.595 111.16C835.415 110.88 832.615 107.38 833.735 102.34C834.715 98.14 836.675 94.22 839.055 90.44C842.275 85.54 835.696 86.24 832.475 86.38C832.335 86.38 832.195 86.38 832.055 86.38C825.475 86.38 820.295 89.32 816.795 94.92C813.855 99.54 810.495 103.74 807.275 108.08C805.875 110.04 804.335 112.42 801.675 110.74C799.575 109.34 800.835 106.96 801.955 105.14C808.815 93.94 816.515 83.3 824.635 72.94C825.615 71.54 827.155 70.14 829.115 71.68C830.655 72.94 829.815 74.34 829.255 75.88C828.275 78.26 825.055 80.92 826.455 82.6C827.715 84 829.815 83.02 831.495 82.74C835.555 82.04 840.035 82.32 843.675 80.36C847.316 78.4 849.975 75.04 852.216 71.68C855.575 66.5 859.775 61.88 863.695 57.12C864.816 55.72 866.215 54.04 868.175 55.72C869.716 56.98 868.455 58.52 867.616 59.78C862.715 67.06 857.815 74.2 852.915 81.48C848.575 87.92 843.815 93.94 840.735 101.08C838.775 105.84 839.615 106.96 844.795 106.54C847.735 106.26 850.256 104.86 852.635 103.46C866.076 96.74 878.256 88.06 889.736 78.54C890.296 78.12 890.856 77.42 891.556 77C892.816 76.3 894.076 73.36 895.755 75.6ZM957.479 75.74C959.579 77.42 957.059 78.96 956.079 80.08C949.919 86.8 942.919 92.54 935.919 98.14C931.019 102.06 925.979 105.7 920.519 108.5C913.099 112.14 907.499 112.42 904.699 108.92C900.639 103.74 904.279 99.12 906.519 94.64C909.739 88.2 914.219 82.46 918.979 77C919.539 76.44 920.799 75.6 919.539 74.48C919.119 74.34 918.139 74.9 917.579 75.18C910.999 79.24 904.559 83.72 897.839 87.36C894.199 89.32 895.459 91.98 895.459 94.64C895.459 103.32 890.839 108.92 883.699 112.98C881.039 114.52 878.659 114.52 876.559 112.56C874.599 110.88 873.479 108.5 874.179 105.7C875.159 101.92 876.559 98.28 878.659 95.06C884.959 85.26 892.379 76.44 899.799 67.34C900.219 66.78 900.779 66.22 901.339 65.8C902.459 64.68 903.579 64.26 904.839 65.1C906.239 65.94 905.819 67.2 905.119 68.46C903.159 71.82 901.199 75.04 899.239 78.4C898.819 79.24 897.699 80.08 898.399 81.06C899.379 82.04 900.219 80.78 901.059 80.36C910.439 75.46 918.979 69.3 927.379 62.86C929.619 61.18 931.859 59.36 934.239 57.68C935.499 56.7 937.039 55.16 938.859 56.84C941.099 58.66 939.279 60.06 938.299 61.46C934.659 66.08 930.879 70.7 927.239 75.32C922.199 81.9 917.159 88.48 912.539 95.2C910.439 98.28 906.799 102.34 909.599 105.42C912.679 108.78 917.299 105.84 920.939 104.02C931.999 98.7 940.959 90.44 949.639 81.9C950.899 80.64 952.019 79.24 953.279 77.98C954.539 76.86 955.799 74.34 957.479 75.74ZM882.859 108.08C887.759 107.94 893.499 98.42 891.399 94.36C890.699 93.1 889.579 92.54 888.599 94.08C886.079 97.72 883.699 101.36 881.879 105.42C881.319 106.68 881.319 107.8 882.859 108.08ZM971.963 49.42C968.323 48.44 966.643 45.5 966.923 42.14C967.063 39.9 967.623 36.4 970.563 36.12C977.843 35.14 971.263 44.8 977.003 46.2C979.943 46.9 982.743 45.5 984.563 44.52C987.223 42.98 989.603 41.58 992.123 40.04C992.683 39.76 993.243 39.34 994.083 39.2C996.183 38.64 998.703 39.9 998.983 40.88C998.983 41.02 998.983 41.3 998.983 41.44C998.563 42.14 997.303 42.7 996.323 43.26C992.403 45.22 988.343 47.18 983.723 48.72C980.223 49.84 975.883 50.54 971.963 49.42ZM1037.2 75.88C1037.76 77.14 1035.8 79.38 1034.82 80.08C1021.66 90.44 1008.5 100.8 993.243 108.08C989.183 110.04 984.843 112 980.643 111.58C971.403 111.58 967.903 107.24 969.583 98.56C969.723 97.44 971.123 95.9 970.003 95.06C968.183 93.8 960.903 101.36 959.223 102.62C954.743 105.98 949.143 110.04 943.403 110.18C938.363 110.32 935.843 107.52 936.683 102.34C936.963 100.66 937.523 98.84 938.363 97.3C943.123 88.34 949.423 80.5 956.423 73.22C956.983 72.66 957.543 72.24 958.243 71.68C959.363 70.98 960.623 70.84 961.883 71.68C963.143 72.52 962.863 73.92 962.163 75.04C956.843 83.86 951.103 92.4 945.363 100.94C943.683 103.6 945.223 105.7 948.163 104.44C956.703 100.8 964.263 95.48 970.983 89.04C980.083 80.22 987.503 69.72 996.183 60.34C996.743 59.64 997.443 58.94 998.283 58.66C1001.08 57.54 1001.78 60.48 1000.94 62.44C999.543 65.8 996.603 68.88 994.643 71.82C991.563 76.3 988.483 80.64 985.403 85.12C982.603 89.18 979.663 93.1 977.843 97.58C976.863 99.96 975.183 101.64 976.443 104.3C978.123 107.8 982.323 106.82 985.263 106.12C993.103 104.02 1000.1 100.24 1006.82 95.9C1015.08 90.72 1023.2 85.26 1030.62 78.82C1031.46 78.12 1036.36 73.92 1037.2 75.88ZM1151.58 74.9C1152.84 76.3 1151.44 77.28 1150.6 78.12C1136.6 90.72 1122.46 103.04 1104.96 110.74C1101.32 112.28 1097.26 113.54 1093.76 112.98C1079.34 112.98 1072.34 103.04 1078.36 90.72C1085.5 75.6 1097.4 64.68 1112.94 58.1C1117.14 56.28 1121.62 56.56 1125.82 57.26C1131 58.1 1134.36 63.28 1133.24 68.18C1131.28 76.3 1126.24 82.46 1119.38 87.08C1118.26 87.92 1116.58 88.2 1115.04 88.48C1112.8 88.76 1110.98 87.92 1110.14 85.54C1109.44 83.44 1110 81.34 1111.82 80.08C1113.78 78.82 1116.02 78.12 1118.12 77.14C1121.48 75.74 1124.7 74.06 1126.8 70.98C1127.92 69.3 1130.02 67.34 1128.2 64.82C1126.52 62.44 1124.42 61.46 1121.48 61.88C1118.68 62.3 1116.02 63.28 1113.64 64.68C1102.3 71.4 1093.2 80.22 1086.2 91.42C1085.08 93.24 1084.38 95.06 1083.96 97.16C1082.84 103.04 1085.64 107.52 1091.66 108.08C1095.16 108.5 1098.66 108.5 1102.3 107.38C1110.7 104.72 1118.26 100.38 1125.12 94.78C1132.68 88.34 1141.22 82.74 1148.36 75.6C1149.2 74.9 1150.32 73.5 1151.58 74.9ZM1208.12 75.32C1209.1 75.88 1208.82 76.58 1208.26 77.14C1207.56 77.98 1207 78.96 1206.3 79.52C1196.5 87.5 1185.58 93.24 1172.84 93.66C1170.04 93.8 1168.78 94.64 1167.24 96.46C1163.18 101.5 1158.7 106.26 1153.1 109.62C1150.72 111.16 1148.34 112.7 1145.68 113.68C1141.76 115.08 1137.56 115.78 1134.06 112.56C1130.7 109.48 1131.54 105.42 1132.38 101.78C1132.94 98.98 1134.2 96.32 1135.6 93.94C1142.04 82.32 1149.88 71.82 1159.54 62.72C1163.6 59.08 1168.08 56.14 1173.4 54.6C1176.76 53.62 1180.12 53.76 1182.92 56C1184.32 56.98 1185.16 58.24 1184.6 59.92C1184.04 62.16 1182.36 61.6 1180.12 60.76C1176.76 60.48 1173.4 62.16 1170.32 64.68C1157.44 75.04 1147.92 88.06 1140.78 102.9C1139.94 104.44 1138.82 106.26 1140.36 107.8C1141.9 109.2 1144 108.64 1145.54 107.94C1152.82 104.86 1158.7 99.96 1163.6 93.8C1164.44 92.68 1165 91.42 1164.44 90.16C1160.38 81.76 1166.12 76.72 1170.88 71.26C1171.86 70.14 1173.12 69.16 1174.38 68.18C1176.06 66.92 1177.88 65.66 1179.98 67.2C1182.22 68.88 1181.8 71.12 1180.68 73.36C1178.72 77.28 1176.9 81.2 1174.8 85.12C1174.24 86.24 1173.12 87.64 1173.68 88.62C1174.52 90.02 1176.48 89.6 1177.88 89.32C1186.14 87.78 1193.7 84.84 1200.42 79.8C1202.52 78.12 1204.62 76.86 1206.72 75.32C1207.14 75.18 1207.84 75.04 1208.12 75.32ZM1221.56 70.7C1216.1 73.36 1213.58 78.26 1211.48 83.58C1215.4 86.1 1219.88 84.42 1223.1 85.12C1235.28 85.26 1245.92 83.02 1255.72 77C1257.26 76.16 1259.22 74.34 1260.34 76.58C1261.18 78.4 1258.8 79.52 1257.26 80.36C1248.3 85.82 1238.5 88.62 1228.14 89.46C1226.04 89.6 1224.08 89.6 1221.98 89.6C1220.3 89.74 1219.46 89.88 1219.6 92.26C1220.58 103.04 1210.22 114.66 1199.3 115.36C1194.4 115.64 1190.9 112.56 1190.76 107.38C1190.76 104.86 1190.76 102.34 1192.02 99.96C1193.14 97.86 1193.84 95.62 1195.1 93.66C1210.64 68.46 1226.88 43.54 1246.06 20.72C1249.56 16.66 1253.48 12.88 1257.96 9.8C1262.3 6.85999 1267.9 6.15999 1270.28 8.4C1273.64 11.62 1273.36 15.4 1272.1 19.74C1269.3 29.54 1263.56 37.38 1256.84 44.52C1247.18 54.6 1235.84 62.72 1223.66 69.58C1222.96 70 1222.26 70.42 1221.56 70.7ZM1226.6 59.92C1226.18 60.48 1225.76 61.46 1225.9 61.88C1226.6 62.86 1227.3 61.74 1227.72 61.46C1240.88 52.78 1253.2 42.98 1262.16 29.82C1264.82 25.76 1267.34 21.56 1267.48 16.38C1267.62 13.02 1266.08 11.9 1263.42 13.72C1260.48 15.82 1257.82 18.2 1255.3 20.72C1244.1 32.62 1235.56 46.48 1226.6 59.92ZM1211.9 90.16C1210.08 89.32 1207.84 88.48 1206.3 90.58C1202.8 95.48 1199.86 100.66 1197.9 106.26C1197.34 107.94 1198.18 109.34 1200.14 109.48C1205.18 110.32 1215.68 100.66 1215.82 94.22C1215.82 92.68 1214 91.14 1211.9 90.16ZM1417.43 76.44C1418.69 77.84 1417.15 79.38 1416.17 80.36C1412.25 84.42 1407.63 87.92 1403.01 91.14C1393.35 98 1383.41 104.58 1372.91 110.04C1370.39 111.3 1367.87 112.84 1364.79 112.56C1361.01 112.84 1359.05 110.74 1358.77 107.1C1358.49 102.76 1360.03 98.98 1362.13 95.34C1365.77 89.04 1369.83 83.16 1374.17 77.42C1376.41 74.48 1378.51 71.54 1380.75 68.74C1382.01 66.92 1382.57 63.84 1379.21 65.24C1377.95 65.8 1377.11 67.06 1376.13 68.04C1369.41 74.48 1361.85 80.08 1354.99 86.52C1348.13 93.24 1341.41 100.24 1334.97 107.38C1332.87 109.76 1330.91 114.24 1327.13 112C1322.65 109.48 1325.87 105.56 1327.27 102.48C1329.23 98.14 1331.75 94.22 1334.55 90.3C1335.95 88.48 1337.35 86.66 1338.75 84.7C1340.01 83.16 1342.25 81.34 1343.09 79.52C1344.07 77 1341.13 78.54 1340.43 79.1C1328.39 87.22 1318.17 97.44 1307.81 107.66C1306.13 109.2 1304.59 110.88 1302.91 112.56C1301.23 114.24 1299.41 114.8 1297.31 113.4C1295.35 112.14 1295.49 109.9 1296.19 107.8C1296.61 106.4 1297.17 105 1297.87 103.6C1301.23 97.16 1308.23 85.68 1314.67 75.88C1314.39 76.02 1314.11 76.3 1313.83 76.44C1301.37 86.38 1271.13 110.6 1255.45 113.82C1247.61 115.36 1242.71 111.16 1242.99 103.32C1242.71 100.1 1244.11 97.02 1245.79 94.08C1252.79 81.2 1261.61 69.86 1272.95 60.62C1276.31 57.68 1280.23 55.72 1284.43 54.46C1287.37 53.48 1290.31 53.9 1292.13 56.56C1293.67 59.08 1293.25 61.88 1291.57 64.54C1290.45 66.36 1288.77 67.62 1287.09 68.74C1282.47 72.1 1277.15 74.48 1271.55 75.18C1267.21 75.74 1264.55 77.84 1262.17 80.92C1258.25 85.96 1254.47 91.14 1251.39 96.88C1249.71 100.38 1247.47 104.44 1250.27 107.8C1252.65 110.6 1256.71 109.76 1260.49 109.06C1275.05 106.12 1303.61 81.76 1314.25 71.54C1318.03 68.04 1321.53 64.26 1325.17 60.62C1326.01 59.64 1326.85 58.52 1327.83 58.1C1328.39 57.82 1328.95 57.54 1329.51 57.96V58.1C1329.93 58.1 1330.21 58.38 1330.49 58.52C1333.01 60.34 1331.61 63.28 1330.21 65.52C1326.85 71.4 1315.51 90.58 1312.01 96.32C1311.73 96.88 1310.89 97.58 1311.87 98.28C1312.71 98.7 1313.27 98.14 1313.83 97.58C1318.87 92.82 1323.91 88.06 1328.95 83.16C1333.43 78.96 1338.33 75.04 1343.79 72.24C1345.89 71.26 1348.13 70.14 1350.23 72.24C1352.05 74.34 1351.77 76.58 1350.65 78.82C1348.83 82.32 1346.87 86.24 1344.49 89.46C1344.07 90.02 1343.65 91.42 1344.49 91.84C1345.33 92.26 1345.89 90.86 1346.45 90.44C1351.07 85.96 1355.55 81.34 1360.17 76.86C1366.05 70.98 1372.35 65.66 1379.07 60.9C1380.33 59.92 1381.73 59.08 1382.99 58.38C1385.51 56.7 1388.17 55.44 1390.69 58.1C1393.07 60.48 1391.11 63 1390.13 65.24C1386.91 71.82 1382.43 77.42 1378.23 83.44C1373.75 89.88 1368.57 96.18 1365.35 103.46C1364.79 104.58 1363.67 105.98 1364.51 107.1C1365.63 108.36 1367.45 108.22 1368.85 107.52C1372.77 105.56 1376.69 103.74 1380.47 101.5C1392.23 94.36 1403.43 86.52 1413.65 77.56C1414.63 76.58 1415.89 74.62 1417.43 76.44ZM1275.61 66.78C1275.33 67.2 1274.49 68.04 1274.63 68.6C1274.91 69.44 1276.73 68.88 1277.43 68.74C1279.53 67.9 1281.91 66.78 1283.73 65.38C1284.85 64.68 1285.97 63.84 1286.67 62.72C1286.95 62.44 1287.37 61.74 1287.51 61.32C1287.51 61.18 1287.51 61.18 1287.51 61.04C1287.37 60.34 1286.39 60.34 1285.83 60.48C1283.59 61.46 1281.49 62.58 1279.39 63.98C1278.13 64.82 1276.73 65.66 1275.61 66.78ZM286.36 215H280.92V187.48H263.32V215H257.88V182.744H286.36V215ZM302.32 227.8H296.88V182.744H302.128V186.264H303.408C305.2 184.024 308.336 181.912 313.392 181.912C322.352 181.912 327.728 189.272 327.728 198.872C327.728 208.536 322.352 215.832 313.392 215.832C308.336 215.832 305.392 213.784 303.6 211.48H302.32V227.8ZM312.368 186.648C305.2 186.648 302.256 192.6 302.256 198.872C302.256 205.208 305.2 211.096 312.368 211.096C318.896 211.096 322.288 206.04 322.288 198.872C322.288 191.704 318.896 186.648 312.368 186.648ZM343.807 215H336.255V182.744H341.567V207.704H342.847L357.247 182.744H365.055V215H359.743V190.04H358.463L343.807 215ZM413.476 187.864C423.268 187.864 428.772 192.984 428.772 201.432C428.772 209.88 423.268 215 413.476 215H393.956V169.304H425.252V174.552H399.716V187.864H413.476ZM412.516 209.88C420.26 209.88 423.012 206.616 423.012 201.368C423.012 196.12 420.26 192.92 412.516 192.92H399.716V209.88H412.516ZM465.285 196.952V198.808H440.709C440.837 206.424 444.357 211.096 451.013 211.096C455.493 211.096 458.245 209.176 459.205 206.104H464.709C463.621 211.608 459.013 215.832 451.013 215.832C440.965 215.832 435.333 208.408 435.333 198.552C435.333 188.632 441.093 181.912 450.885 181.912C460.421 181.912 465.157 189.016 465.285 196.952ZM450.757 186.648C444.869 186.648 441.797 190.168 441.029 194.264H459.653C459.269 190.232 456.261 186.648 450.757 186.648ZM470.107 215V209.88H471.195C475.611 209.88 477.531 206.936 477.531 195.48V182.744H502.235V215H496.731V187.48H482.587V195.608C482.587 210.456 479.131 215 471.195 215H470.107ZM512.692 215V182.744H536.884V187.48H518.132V215H512.692ZM556.393 181.912C566.441 181.912 572.265 189.272 572.265 198.872C572.265 208.472 566.441 215.832 556.393 215.832C546.281 215.832 540.521 208.472 540.521 198.872C540.521 189.272 546.281 181.912 556.393 181.912ZM556.393 211.096C563.497 211.096 566.825 205.208 566.825 198.872C566.825 192.6 563.497 186.648 556.393 186.648C549.225 186.648 545.961 192.6 545.961 198.872C545.961 205.208 549.225 211.096 556.393 211.096ZM586.195 227.8H580.755V182.744H586.003V186.264H587.283C589.075 184.024 592.211 181.912 597.267 181.912C606.227 181.912 611.603 189.272 611.603 198.872C611.603 208.536 606.227 215.832 597.267 215.832C592.211 215.832 589.267 213.784 587.475 211.48H586.195V227.8ZM596.243 186.648C589.075 186.648 586.131 192.6 586.131 198.872C586.131 205.208 589.075 211.096 596.243 211.096C602.771 211.096 606.163 206.04 606.163 198.872C606.163 191.704 602.771 186.648 596.243 186.648ZM634.018 181.912C644.066 181.912 649.89 189.272 649.89 198.872C649.89 208.472 644.066 215.832 634.018 215.832C623.906 215.832 618.146 208.472 618.146 198.872C618.146 189.272 623.906 181.912 634.018 181.912ZM634.018 211.096C641.122 211.096 644.45 205.208 644.45 198.872C644.45 192.6 641.122 186.648 634.018 186.648C626.85 186.648 623.586 192.6 623.586 198.872C623.586 205.208 626.85 211.096 634.018 211.096ZM687.116 210.264H693.068V224.152H687.756V215H659.852V224.152H654.54V210.264H658.828C660.876 205.976 662.924 199.576 662.924 191.576V182.744H687.116V210.264ZM681.676 210.264V187.48H667.98V191.576C667.98 199.64 666.316 205.976 664.332 210.264H681.676ZM721.954 205.4H727.394C726.242 211.672 721.314 215.832 713.826 215.832C703.778 215.832 698.146 208.472 698.146 198.872C698.146 189.208 703.778 181.912 713.826 181.912C721.442 181.912 726.114 186.008 727.202 191.96H721.762C720.738 188.696 718.242 186.648 713.826 186.648C706.53 186.648 703.586 192.28 703.586 198.744C703.586 205.272 706.594 211.096 713.826 211.096C718.434 211.096 721.122 208.984 721.954 205.4ZM757.457 215L749.393 200.792H740.945V215H735.505V182.744H740.945V196.056H749.585L757.329 182.744H763.153L754.065 198.296L763.601 215H757.457ZM785.205 181.912C795.253 181.912 801.077 189.272 801.077 198.872C801.077 208.472 795.253 215.832 785.205 215.832C775.093 215.832 769.333 208.472 769.333 198.872C769.333 189.272 775.093 181.912 785.205 181.912ZM785.205 211.096C792.309 211.096 795.637 205.208 795.637 198.872C795.637 192.6 792.309 186.648 785.205 186.648C778.037 186.648 774.773 192.6 774.773 198.872C774.773 205.208 778.037 211.096 785.205 211.096ZM809.567 215V182.744H818.079L826.207 198.296H827.487L835.615 182.744H843.999V215H838.687V189.08H837.407L829.727 203.736H823.839L816.159 189.08H814.879V215H809.567ZM872.317 215V182.744H896.509V187.48H877.757V215H872.317ZM916.018 181.912C926.066 181.912 931.89 189.272 931.89 198.872C931.89 208.472 926.066 215.832 916.018 215.832C905.906 215.832 900.146 208.472 900.146 198.872C900.146 189.272 905.906 181.912 916.018 181.912ZM916.018 211.096C923.122 211.096 926.45 205.208 926.45 198.872C926.45 192.6 923.122 186.648 916.018 186.648C908.85 186.648 905.586 192.6 905.586 198.872C905.586 205.208 908.85 211.096 916.018 211.096ZM945.82 227.8H940.38V182.744H945.628V186.264H946.908C948.7 184.024 951.836 181.912 956.892 181.912C965.852 181.912 971.228 189.272 971.228 198.872C971.228 208.536 965.852 215.832 956.892 215.832C951.836 215.832 948.892 213.784 947.1 211.48H945.82V227.8ZM955.868 186.648C948.7 186.648 945.756 192.6 945.756 198.872C945.756 205.208 948.7 211.096 955.868 211.096C962.396 211.096 965.788 206.04 965.788 198.872C965.788 191.704 962.396 186.648 955.868 186.648ZM993.643 181.912C1003.69 181.912 1009.51 189.272 1009.51 198.872C1009.51 208.472 1003.69 215.832 993.643 215.832C983.531 215.832 977.771 208.472 977.771 198.872C977.771 189.272 983.531 181.912 993.643 181.912ZM993.643 211.096C1000.75 211.096 1004.07 205.208 1004.07 198.872C1004.07 192.6 1000.75 186.648 993.643 186.648C986.475 186.648 983.211 192.6 983.211 198.872C983.211 205.208 986.475 211.096 993.643 211.096ZM1046.74 210.264H1052.69V224.152H1047.38V215H1019.48V224.152H1014.16V210.264H1018.45C1020.5 205.976 1022.55 199.576 1022.55 191.576V182.744H1046.74V210.264ZM1041.3 210.264V187.48H1027.6V191.576C1027.6 199.64 1025.94 205.976 1023.96 210.264H1041.3ZM1081.58 205.4H1087.02C1085.87 211.672 1080.94 215.832 1073.45 215.832C1063.4 215.832 1057.77 208.472 1057.77 198.872C1057.77 189.208 1063.4 181.912 1073.45 181.912C1081.07 181.912 1085.74 186.008 1086.83 191.96H1081.39C1080.36 188.696 1077.87 186.648 1073.45 186.648C1066.15 186.648 1063.21 192.28 1063.21 198.744C1063.21 205.272 1066.22 211.096 1073.45 211.096C1078.06 211.096 1080.75 208.984 1081.58 205.4ZM1117.08 215L1109.02 200.792H1100.57V215H1095.13V182.744H1100.57V196.056H1109.21L1116.95 182.744H1122.78L1113.69 198.296L1123.23 215H1117.08ZM1144.83 181.912C1154.88 181.912 1160.7 189.272 1160.7 198.872C1160.7 208.472 1154.88 215.832 1144.83 215.832C1134.72 215.832 1128.96 208.472 1128.96 198.872C1128.96 189.272 1134.72 181.912 1144.83 181.912ZM1144.83 211.096C1151.93 211.096 1155.26 205.208 1155.26 198.872C1155.26 192.6 1151.93 186.648 1144.83 186.648C1137.66 186.648 1134.4 192.6 1134.4 198.872C1134.4 205.208 1137.66 211.096 1144.83 211.096ZM1169.19 215V182.744H1177.7L1185.83 198.296H1187.11L1195.24 182.744H1203.62V215H1198.31V189.08H1197.03L1189.35 203.736H1183.46L1175.78 189.08H1174.5V215H1169.19ZM1253.77 205.4H1259.21C1258.05 211.672 1253.13 215.832 1245.64 215.832C1235.59 215.832 1229.96 208.472 1229.96 198.872C1229.96 189.208 1235.59 181.912 1245.64 181.912C1253.25 181.912 1257.93 186.008 1259.01 191.96H1253.57C1252.55 188.696 1250.05 186.648 1245.64 186.648C1238.34 186.648 1235.4 192.28 1235.4 198.744C1235.4 205.272 1238.41 211.096 1245.64 211.096C1250.25 211.096 1252.93 208.984 1253.77 205.4ZM1281.21 181.912C1291.25 181.912 1297.08 189.272 1297.08 198.872C1297.08 208.472 1291.25 215.832 1281.21 215.832C1271.09 215.832 1265.33 208.472 1265.33 198.872C1265.33 189.272 1271.09 181.912 1281.21 181.912ZM1281.21 211.096C1288.31 211.096 1291.64 205.208 1291.64 198.872C1291.64 192.6 1288.31 186.648 1281.21 186.648C1274.04 186.648 1270.77 192.6 1270.77 198.872C1270.77 205.208 1274.04 211.096 1281.21 211.096ZM1328.35 198.68C1331.36 199.448 1333.54 202.008 1333.54 206.168C1333.54 211.992 1329.44 215 1322.14 215H1305.57V182.744H1322.27C1328.74 182.744 1332.45 185.88 1332.45 191C1332.45 194.264 1330.34 196.76 1328.35 197.4V198.68ZM1321.82 210.392C1326.5 210.392 1328.1 208.344 1328.1 205.592C1328.1 202.904 1326.5 200.728 1321.82 200.728H1310.94V210.392H1321.82ZM1310.94 187.352V196.12H1321.76C1325.66 196.12 1327.01 194.072 1327.01 191.768C1327.01 189.272 1325.66 187.352 1321.76 187.352H1310.94ZM1369.97 196.952V198.808H1345.4C1345.52 206.424 1349.04 211.096 1355.7 211.096C1360.18 211.096 1362.93 209.176 1363.89 206.104H1369.4C1368.31 211.608 1363.7 215.832 1355.7 215.832C1345.65 215.832 1340.02 208.408 1340.02 198.552C1340.02 188.632 1345.78 181.912 1355.57 181.912C1365.11 181.912 1369.84 189.016 1369.97 196.952ZM1355.44 186.648C1349.56 186.648 1346.48 190.168 1345.72 194.264H1364.34C1363.96 190.232 1360.95 186.648 1355.44 186.648ZM1374.05 187.48V182.744H1401.83V187.48H1390.69V215H1385.25V187.48H1374.05ZM1436.47 196.952V198.808H1411.9C1412.02 206.424 1415.54 211.096 1422.2 211.096C1426.68 211.096 1429.43 209.176 1430.39 206.104H1435.9C1434.81 211.608 1430.2 215.832 1422.2 215.832C1412.15 215.832 1406.52 208.408 1406.52 198.552C1406.52 188.632 1412.28 181.912 1422.07 181.912C1431.61 181.912 1436.34 189.016 1436.47 196.952ZM1421.94 186.648C1416.06 186.648 1412.98 190.168 1412.22 194.264H1430.84C1430.46 190.232 1427.45 186.648 1421.94 186.648Z" fill="white"/>
<path d="M0 21C0 9.40204 9.40202 0 21 0H185.632C197.23 0 206.632 9.40202 206.632 21V207.075C206.632 215.856 201.167 223.711 192.934 226.764L110.618 257.292C105.907 259.039 100.725 259.039 96.0137 257.292L13.6979 226.764C5.46423 223.711 0 215.856 0 207.075V21Z" fill="#009BFF"/>
<path d="M140.863 169.61C140.49 169.041 137.166 165.284 133.478 161.26C129.79 157.236 126.509 153.487 126.187 152.928C124.111 149.33 123.977 144.393 125.858 140.789C127.286 138.054 130.236 135.79 133.605 134.845C134.813 134.506 135.79 134.182 135.777 134.124C135.764 134.067 135.348 133.429 134.853 132.707L133.952 131.394L137.446 129.812C141.239 128.094 144.637 126.853 145.886 126.728C147.171 126.6 152.949 127.782 152.765 128.135C152.739 128.184 151.725 128.698 150.511 129.279C148.265 130.353 145.275 132.272 145.337 132.6C145.428 133.078 152.422 133.48 160.141 133.452C162.527 133.443 164.655 133.436 164.87 133.435C165.084 133.434 164.406 133.982 163.364 134.652C162.321 135.321 158.607 137.722 155.11 139.986L148.752 144.104L146.502 143.989C145.264 143.926 143.417 143.74 142.398 143.575L140.544 143.275L138.101 139.379L136.448 139.692C132.268 140.484 129.927 142.799 130.085 145.983L130.09 146.084C130.106 146.408 130.12 146.687 130.159 146.955C130.398 148.608 131.592 149.884 140.137 159.009L140.574 159.476C143.386 162.48 145.901 165.412 146.289 166.14C147.338 168.029 147.185 170.357 145.897 172.092L144.191 174.391L140.863 169.61Z" fill="white"/>
<path d="M109.847 182.452C110.214 183.405 111.193 185.662 112.022 187.468C113.421 190.512 113.691 190.923 115.741 193.117L117.951 195.484L114.365 200.179C112.392 202.762 109.577 206.464 108.108 208.406L105.438 211.937H90.3866L90.7619 211.039C91.556 209.14 96.1004 202.495 98.423 202.948L100.842 203.419L98.121 202.926C99.2697 203.007 100.782 203.139 101.481 203.22L102.752 203.367L105.24 199.817C106.609 197.865 107.774 196.147 107.831 196C107.887 195.854 106.645 194.907 105.069 193.897C103.494 192.887 102.096 191.928 101.963 191.765C101.797 191.561 101.994 190.11 102.597 187.105L103.472 182.741L106.111 181.671C107.563 181.083 108.848 180.628 108.966 180.661C109.084 180.693 109.48 181.499 109.847 182.452Z" fill="white"/>
<path fill-rule="evenodd" clip-rule="evenodd" d="M109.847 182.452C110.214 183.405 111.193 185.662 112.022 187.468C113.421 190.512 113.691 190.923 115.741 193.117L117.951 195.484L114.365 200.179C112.392 202.762 109.577 206.464 108.108 208.406L105.438 211.937H90.3866L90.7619 211.039C91.556 209.14 96.1004 202.495 98.423 202.948L100.842 203.419L98.121 202.926C99.2697 203.007 100.782 203.139 101.481 203.22L102.752 203.367L105.24 199.817C106.609 197.865 107.774 196.147 107.831 196C107.887 195.854 106.645 194.907 105.069 193.897C103.494 192.887 102.096 191.928 101.963 191.765C101.797 191.561 101.994 190.11 102.597 187.105L103.472 182.741L106.111 181.671C107.563 181.083 108.848 180.628 108.966 180.661C109.084 180.693 109.48 181.499 109.847 182.452Z" fill="white"/>
<path d="M125.987 166.137L129.301 168.035C133.879 170.657 136.444 171.91 137.229 171.907C138.238 171.903 140.229 170.88 141 169.969C142.034 168.748 137.807 166.711 137.807 165.485L134.939 159.176C135.721 160.819 143.457 162.417 143.541 164.338C143.611 165.923 146.982 168.352 146.982 169.499C145.431 174.867 140.711 178.026 136.016 177.169C134.547 176.901 133.194 176.321 130.053 174.61C128.776 173.915 127.673 173.346 127.601 173.346C127.529 173.346 127.948 174.371 128.531 175.625C129.666 178.064 131.554 183.611 132.003 185.826L132.277 187.175L134.725 188.558C138.596 190.743 144.733 194.464 144.732 194.624C144.732 194.705 143.712 196.844 142.465 199.379C141.219 201.913 140.274 203.987 140.366 203.987L140 208L139.574 213.066L130.395 213.075C125.346 213.08 121.216 213.028 121.216 212.96C121.216 212.519 123.551 207.988 124.724 206.153L125.033 205.669C125.712 204.607 126.918 204.003 128.175 204.095C129.297 204.177 130.71 204.305 131.317 204.381L132.418 204.517L133.099 201.956C133.738 199.552 133.756 199.357 133.395 198.759C133.184 198.409 132.757 197.93 132.445 197.695C132.134 197.461 128.967 196.134 125.408 194.746C121.162 193.091 118.702 192.002 118.255 191.582C117.053 190.449 114.379 187.161 113.256 185.435C112.656 184.513 111.949 183.397 111 181.671L110.832 181.447C109.741 179.989 107.832 179.404 106.111 180C101.456 181.79 101.702 161.572 101.613 161.394C101.569 161.308 101.838 160.251 102.21 159.046C102.591 157.811 100.634 157.808 98.1339 159.808C96.8245 161.363 95.5634 162.799 95.3315 163C95.0149 163.274 92.8855 163.252 86.7985 162.91C82.3375 162.66 77.269 162.394 75.5352 162.319L72.3828 162.182L68.6807 154.984C66.6023 150.943 65.0609 147.744 65.1665 147.691C65.4574 147.544 70.3268 147.453 72.8647 147.546L75.1424 147.63L76.0547 149.858C76.5564 151.083 77.1792 152.518 77.4387 153.046L77.9107 154.007L82.4915 153.52C85.011 153.253 87.5841 152.972 88.2095 152.896L89.3465 152.758L96.5771 143.26L93.4414 142.522L89.0607 145.283L85.6603 144.124C83.7903 143.486 76.8047 140.939 70.1373 138.463L58.0141 133.962L53 124.028L55.5674 123.966C56.9795 123.933 59.2612 123.971 60.6376 124.051L63.1403 124.198L63.8216 125.562C64.1964 126.312 64.8581 127.743 65.2923 128.743L66.0817 130.56L74.342 130.457C78.8851 130.401 83.9068 130.339 85.5011 130.319L88.4004 130.283L87.2437 131.849C86.6075 132.711 85.4944 133.932 84.7699 134.562L83.4528 135.71L85.2289 135.27L85.2503 135.265C86.4567 134.966 87.2394 134.773 87.9669 134.454C89.3107 133.864 90.4664 132.847 93.7569 129.949L93.788 129.922C96.3881 127.632 98.6053 125.713 98.7149 125.658L104.04 122.608L116.011 135.71L116.731 144.124L125.987 166.137Z" fill="white"/>
<path d="M104.414 107.909C104.582 108.842 104.754 110.167 104.795 110.852C104.951 113.452 104.385 116.491 103.296 118.894C102.39 120.894 102.313 120.962 100.273 121.592C96.4604 122.768 93.9893 123.991 91.9453 125.714L90.6694 126.789L90.0994 128.687C89.7857 129.73 89.4388 130.847 89.3284 131.168L89.1276 131.753L88.5686 129.183C88.2612 127.77 87.9269 126.186 87.826 125.662L87.6425 124.71L88.3585 124.13C88.7524 123.811 90.4657 122.49 92.1658 121.195L95.2572 118.84L96.1376 117.085C96.6217 116.12 97.1432 115.048 97.2963 114.703C97.566 114.095 97.6019 114.074 98.4525 114.041C100.009 113.98 100.527 113.715 101.254 112.603C101.996 111.469 102.159 109.604 101.656 108.019L101.449 107.367L102.694 106.767C103.379 106.437 103.977 106.177 104.024 106.189C104.07 106.202 104.246 106.976 104.414 107.909Z" fill="white"/>
<path fill-rule="evenodd" clip-rule="evenodd" d="M100.554 97.5395L96.0874 100.074L88.5743 99.1115C88.549 99.4616 91.9508 97.3901 91.9034 97.404C91.8052 97.4329 90.3485 98.0218 88.6662 98.7129L85.6074 99.9696L85.1305 101.191C84.6684 102.375 84.6146 102.428 83.4065 102.873C82.7206 103.126 81.2934 103.756 80.2347 104.272C78.6573 105.041 78.3022 105.303 78.2669 105.72C78.2432 105.999 78.533 107.244 78.9108 108.486C79.4956 110.407 79.7358 110.886 80.5274 111.704C81.0387 112.232 81.7293 112.858 82.0622 113.094L82.6673 113.523L82.7731 112.311C82.8315 111.644 82.9573 110.998 83.0529 110.875C83.3352 110.512 85.2095 110.138 86.2748 110.232C88.0724 110.391 89.7522 112.05 89.6241 113.541C89.448 115.591 86.4424 116.772 84.2734 115.645L83.573 115.281L83.505 116.084C83.4676 116.525 83.5757 117.519 83.7452 118.292C83.9962 119.437 84.2093 119.849 84.8916 120.511C85.5864 121.184 87.7284 122.553 88.1419 122.588C88.2045 122.593 88.2349 122.08 88.2097 121.447L88.1635 120.296L92.7452 118.487L93.1344 116.926C93.8581 114.025 94.6075 113.304 97.6321 112.598L99.7516 112.103L100.224 111.102C100.775 109.934 100.771 109.915 99.2925 107.277L98.3309 105.56L100.045 104.52C100.988 103.947 102.442 103.055 103.277 102.537L104.795 101.594L103.277 100.173C103.263 99.4199 102.739 98.523 102.694 98.4322L100.554 97.5395ZM86.7336 102.858C86.7564 102.589 87.5992 102.359 89.216 102.182C90.6996 102.019 92.0768 102.018 92.0632 102.179C92.0494 102.342 88.996 104.148 88.7673 104.129C88.399 104.098 86.7176 103.047 86.7336 102.858Z" fill="white"/>
<path d="M111.525 91.6014C107.492 90.0376 109.379 90.6694 107.492 90.0376C104.25 88.9518 105.047 89.1758 102.331 90.0376C100.741 90.5423 100.152 90.5868 97.7432 92.3315L94.8758 94.052L91.435 96.346C91.4169 96.9132 88.6013 98.737 88.5743 99.1115L96.0874 100.074L100.126 99.4307L101.332 98.9781L102.333 98.6276C103.25 101.354 104.167 103.094 106.211 105.982C109.163 110.152 110.203 112.623 110.374 115.871C110.417 116.686 110.43 117.35 110.402 117.346C110.375 117.342 110.08 116.728 109.749 115.981C109.112 114.547 107.51 112.131 106.681 111.352L106.186 110.888L105.858 113.836C105.477 117.245 105.093 118.427 103.354 121.539L102.234 123.542L93.8983 128.469C89.1148 131.545 84.0415 141.752 82.7042 144.614C82.1143 145.876 88.4963 147.994 92.0639 145.427L110.42 127.393C111.564 126.598 111.853 126.254 112.664 124.724C113.176 123.757 113.872 122.195 114.21 121.253L114.826 119.539L115.066 120.404C115.913 123.455 115.336 127.388 113.512 130.995C113.031 131.945 112.994 132.11 113.276 132.045C113.603 131.968 118.732 129.692 121.814 128.256L123.372 127.53L123.549 125.413C123.647 124.249 123.65 122.724 123.557 122.025C123.102 118.623 121.665 114.705 119.639 111.345L118.549 109.537L119.217 109.774C120.935 110.383 124.903 113.078 126.711 114.864L125.418 109.776C124.971 108.9 123.928 107.299 123.1 106.217C120.732 103.122 118.04 100.98 114.166 99.1117C112.279 98.201 112.225 98.1576 113.116 98.2665C114.27 98.4072 117.252 98.3053 118.848 98.0702C120.223 97.8678 123.716 96.7468 123.75 96.497C123.763 96.4037 123.141 96.2405 122.368 96.1343C119.225 95.7023 115.516 94.1518 111.525 91.6014Z" fill="white"/>
<path fill-rule="evenodd" clip-rule="evenodd" d="M98.2695 35.662C97.8459 35.1093 97.0883 34.7326 97.106 34.6926C97.2061 34.4671 99.8264 35.5102 100.217 35.9309C100.55 36.289 100.376 35.7335 99.857 34.7769C99.3562 33.8543 99.1318 33.5835 98.2695 32.8602C97.6477 32.3387 96.8557 31.8361 96.1903 31.5409L95.1155 31.0641L95.6597 30.3107C96.2344 29.5154 96.6343 28.3994 96.6539 27.5366C96.6672 26.9537 96.6405 26.9455 96.2351 27.4077C95.5712 28.1645 94.6506 28.7142 92.3586 29.7226C89.8465 30.8279 91.3656 30.9215 89.528 31.3519L89.4413 31.3722C88.5163 31.5888 88.0952 31.6873 88.0701 31.8153L88.0691 31.8225C88.0651 31.872 88.1188 31.9261 88.2243 31.9933C88.2875 32.0336 88.3694 32.0786 88.4686 32.13C88.5567 32.1757 88.6585 32.2265 88.7731 32.2837L88.8257 32.31L89.7825 32.7879L89.2424 32.8396C88.8785 32.8744 88.5723 32.8218 88.3037 32.6786C88.0651 32.5512 87.4442 32.4274 86.757 32.37C85.3977 32.2567 84.8125 32.4537 84.2864 33.2018C83.5792 34.2077 83.595 35.3726 84.3344 36.7234L84.7738 37.5262L84.9186 36.7356C85.155 35.4449 85.77 34.9286 86.9861 34.9998C87.7579 35.045 88.4378 35.2568 88.9198 35.5658C88.9934 35.5957 89.0659 35.6283 89.1328 35.662C89.4744 35.8339 89.5852 35.9462 89.437 36.031C89.6021 36.2526 89.6847 36.4966 89.6641 36.7494C89.6326 37.1361 89.5482 37.2528 89.1663 37.4366C88.3816 37.8144 87.691 37.877 86.9084 37.6413C86.226 37.436 86.2051 37.4385 85.8478 37.7678C85.6473 37.9524 85.4779 38.1455 85.4715 38.1966C85.4495 38.3678 86.2511 38.7672 87.1107 39.0134C87.9458 39.2527 87.9903 39.2512 89.5091 38.9299L91.0568 38.6026L91.6529 39.0132C91.8403 39.1158 90.8888 43.4737 90.9068 43.5131L103.59 39.0132L98.2695 35.662ZM92.4697 33.7165C91.9233 34.0399 91.2332 33.9808 90.749 33.5691L90.2233 33.1221C91.2627 33.0094 92.3105 32.9995 93.3518 33.0925L93.5014 33.1059L92.4697 33.7165Z" fill="white"/>
<path d="M115.04 65.8461C115.175 66.5701 115.391 67.6938 115.518 68.3435L115.751 69.5246L113.931 70.5421C112.93 71.1018 111.287 72.1326 110.281 72.8331L108.451 74.1065L107.28 71.4298L105.283 71.943C104.184 72.2254 103.261 72.5099 103.231 72.5753C103.201 72.6409 103.676 73.4262 104.288 74.3206L105.4 75.9468L104.778 77.4928C104.161 79.0285 104.151 79.0416 103.306 79.4375C102.38 79.8718 100.475 80.439 100.415 80.2986C100.394 80.2505 100.748 79.8264 101.202 79.3559C101.985 78.5447 102.029 78.4587 102.059 77.6889C102.101 76.6097 102.043 76.4689 101.053 75.266C99.8912 73.8544 98.9709 73.4864 96.6261 73.4958C94.9464 73.5025 94.8762 73.5227 94.101 74.2203C93.3214 74.9218 93.3005 74.9615 93.1729 75.9928C93.1008 76.5729 93.0566 77.13 93.0744 77.2304C93.0923 77.3307 93.0285 77.3814 92.9328 77.3429C92.7495 77.269 91.2435 74.4825 91.1734 74.0872C91.1509 73.9607 91.5024 73.087 91.9543 72.1458C92.0177 72.0136 92.0756 71.8904 92.1295 71.7756C92.3975 71.2049 92.5689 70.8398 92.8506 70.6071C93.3507 70.1938 94.1986 70.1977 96.552 70.2085C96.8188 70.2097 97.1048 70.2111 97.4119 70.2119C97.7197 70.2127 97.5964 70.0301 96.7805 69.2768C95.8608 68.4276 95.6836 68.3276 94.8715 68.1996C94.1367 68.084 93.7334 68.1715 92.6198 68.6885L91.263 69.3185L91.6216 68.2494C91.9054 67.4033 92.1638 66.987 92.861 66.2527L93.7419 65.3251L97.3417 65.2467L98.3512 66.336C98.9065 66.9351 99.7469 67.9348 100.219 68.5575L101.077 69.6898L103.29 69.0103C104.506 68.6364 105.522 68.2808 105.546 68.2198C105.57 68.1589 105.125 67.3717 104.556 66.4705C103.987 65.5692 99.0028 58.5531 99.1134 58.5129C99.224 58.4729 104.054 59.5066 105.546 59.4958C107.038 59.485 108.963 60.0982 110.305 60.0128C111.647 59.9273 114.357 64.3799 114.512 64.4331C114.679 64.4905 114.894 65.0654 115.04 65.8461Z" fill="white"/>
<path d="M93.2044 43.3771L92.7169 43.139L91.7368 42.6881C91.575 42.625 89.9905 41.9615 88.2156 41.2138C85.3196 39.9937 84.9386 39.7926 84.5014 39.2545C84.2336 38.9247 83.0353 37.5359 81.8387 36.1684L79.6632 33.6819L76.2045 33.2652C74.3021 33.0361 69.7541 32.4708 66.0976 32.009C62.4412 31.5473 58.4067 31.0346 57.1321 30.87L54.8147 30.5705L56.0808 31.2985C58.4713 32.6732 65.0641 36.3274 68.2325 38.0337C69.9764 38.9729 72.1168 40.1259 72.9889 40.5962C73.861 41.0663 77.2669 42.8619 80.5576 44.5865C83.8483 46.311 87.5515 48.2558 88.7869 48.9083C90.0224 49.5608 91.0638 50.0865 91.1011 50.0765C91.1385 50.0666 91.4211 49.1704 91.7292 48.0848C92.0371 46.9993 92.495 45.496 92.7468 44.7441L93.2044 43.3771Z" fill="white"/>
<path d="M76.7232 44.299C78.2928 45.177 82.1142 47.2893 85.2154 48.993L90.8537 52.0908L90.2859 52.5374C87.9143 54.4025 85.7239 55.5755 83.2094 56.3268L81.5038 56.8362L77.7115 56.5124C75.6256 56.3343 73.9568 56.1302 74.0028 56.059C74.0489 55.9876 74.4554 55.7082 74.9063 55.4378C76.8547 54.2698 81.4358 50.843 81.221 50.7142C81.1888 50.6949 80.0707 51.1151 78.7365 51.6483C74.7821 53.2284 71.8774 54.289 70.7039 54.5813C69.4808 54.8858 67.6874 55.0317 63.8002 55.1427C62.3681 55.1836 61.1598 55.222 61.1152 55.2282C60.5328 55.3076 70.4983 50.0552 75.7107 47.5355L76.5515 47.129L75.9701 46.9875C75.4187 46.8532 75.3008 46.877 73.6941 47.444C68.224 49.3744 61.0881 51.8074 59.5759 52.2578L57.8227 52.7798L56.0019 52.4398C51.4302 51.586 45.1983 50.3546 45.0545 50.2765C44.9634 50.2271 45.705 49.9803 46.7937 49.6976C47.8375 49.4266 51.2902 48.5153 54.4661 47.6723C57.6421 46.8295 63.3071 45.3665 67.055 44.4212L73.8693 42.7026L76.7232 44.299Z" fill="white"/>
<path d="M38.4641 40.1907C42.2138 39.9732 53.3167 39.4452 63.3496 39.0073L67.0175 38.8472L72.2069 41.8299L70.4827 42.1755C68.6043 42.5522 62.4818 43.5144 54.8049 44.6391C52.1155 45.0332 49.0456 45.4907 47.9831 45.6557C46.0881 45.95 46.0369 45.9494 45.2972 45.623C44.8824 45.4399 43.3743 44.7757 41.9456 44.1468C40.517 43.5181 38.2484 42.4961 36.9044 41.8761C35.5606 41.2559 34.3483 40.6976 34.2105 40.6353C34.0578 40.566 34.0224 40.5046 34.1199 40.4776C34.2076 40.4532 36.1625 40.324 38.4641 40.1907Z" fill="white"/>
<path d="M35.13 28.2247C42.5885 29.0771 49.306 29.8575 51.4095 30.116L52.641 30.2673L56.8814 32.9119C63.1794 36.8397 63.6678 37.1577 63.4748 37.2057C63.052 37.3109 48.0154 36.8233 40.8519 36.472C39.5222 36.4068 38.3226 36.3496 38.1861 36.3449C38.0498 36.3402 37.073 35.6954 36.0157 34.912C32.8703 32.5814 26.0184 27.3744 26.0003 27.3009C25.9747 27.1968 27.3747 27.3384 35.13 28.2247Z" fill="white"/>
<path d="M76.7232 44.299C78.2928 45.177 82.1142 47.2893 85.2154 48.993L90.8537 52.0908L90.2859 52.5374C87.9143 54.4025 85.7239 55.5755 83.2094 56.3268L81.5038 56.8362L77.7115 56.5124C75.6256 56.3343 73.9568 56.1302 74.0028 56.059C74.0489 55.9876 74.4554 55.7082 74.9063 55.4378C76.8547 54.2698 81.4358 50.843 81.221 50.7142C81.1888 50.6949 80.0707 51.1151 78.7365 51.6483C74.7821 53.2284 71.8774 54.289 70.7039 54.5813C69.4808 54.8858 67.6874 55.0317 63.8002 55.1427C62.3681 55.1836 61.1598 55.222 61.1152 55.2282C60.5328 55.3076 70.4983 50.0552 75.7107 47.5355L76.5515 47.129L75.9701 46.9875C75.4187 46.8532 75.3008 46.877 73.6941 47.444C68.224 49.3744 61.0881 51.8074 59.5759 52.2578L57.8227 52.7798L56.0019 52.4398C51.4302 51.586 45.1983 50.3546 45.0545 50.2765C44.9634 50.2271 45.705 49.9803 46.7937 49.6976C47.8375 49.4266 51.2902 48.5153 54.4661 47.6723C57.6421 46.8295 63.3071 45.3665 67.055 44.4212L73.8693 42.7026L76.7232 44.299Z" fill="white"/>
<path d="M38.4641 40.1907C42.2138 39.9732 53.3167 39.4452 63.3496 39.0073L67.0175 38.8472L72.2069 41.8299L70.4827 42.1755C68.6043 42.5522 62.4818 43.5144 54.8049 44.6391C52.1155 45.0332 49.0456 45.4907 47.9831 45.6557C46.0881 45.95 46.0369 45.9494 45.2972 45.623C44.8824 45.4399 43.3743 44.7757 41.9456 44.1468C40.517 43.5181 38.2484 42.4961 36.9044 41.8761C35.5606 41.2559 34.3483 40.6976 34.2105 40.6353C34.0578 40.566 34.0224 40.5046 34.1199 40.4776C34.2076 40.4532 36.1625 40.324 38.4641 40.1907Z" fill="white"/>
<path d="M35.13 28.2247C42.5885 29.0771 49.306 29.8575 51.4095 30.116L52.641 30.2673L56.8814 32.9119C63.1794 36.8397 63.6678 37.1577 63.4748 37.2057C63.052 37.3109 48.0154 36.8233 40.8519 36.472C39.5222 36.4068 38.3226 36.3496 38.1861 36.3449C38.0498 36.3402 37.073 35.6954 36.0157 34.912C32.8703 32.5814 26.0184 27.3744 26.0003 27.3009C25.9747 27.1968 27.3747 27.3384 35.13 28.2247Z" fill="white"/>
<path d="M102.832 31.4363L103.424 31.3033L104.606 31.0607C104.798 31.0307 106.694 30.6967 108.819 30.3186C112.285 29.7015 112.751 29.5843 113.36 29.1762C113.733 28.926 115.381 27.884 117.022 26.8607L120.006 25L123.895 25.1891C126.033 25.2931 131.15 25.5262 135.266 25.707C139.382 25.888 143.924 26.0848 145.359 26.1446L147.969 26.2531L146.407 26.6961C143.456 27.5326 135.353 29.7174 131.47 30.7231C129.333 31.2766 126.71 31.9563 125.642 32.2336C124.573 32.5108 120.409 33.5575 116.388 34.5596C112.367 35.5617 107.841 36.693 106.331 37.0737C104.82 37.4544 103.552 37.7537 103.514 37.7387C103.475 37.7239 103.383 36.8805 103.308 35.8646C103.234 34.8487 103.096 33.4368 103.002 32.7269L102.832 31.4363Z" fill="white"/>
<path d="M119.962 34.6385C117.99 35.0727 113.2 36.1026 109.315 36.9273L102.253 38.4266L102.72 39.0917C104.671 41.8693 106.65 43.8434 109.114 45.4691L110.785 46.5717L114.969 47.4563C117.27 47.9429 119.131 48.266 119.104 48.1743C119.078 48.0826 118.73 47.6498 118.332 47.2123C116.612 45.3223 112.786 40.1463 113.059 40.0776C113.1 40.0673 114.167 40.8829 115.431 41.8903C119.177 44.8758 121.96 46.9612 123.129 47.6572C124.346 48.3824 126.229 49.1225 130.375 50.5057C131.902 51.0153 133.19 51.4495 133.236 51.4707C133.837 51.7455 124.806 42.8549 120.009 38.4495L119.236 37.7389L119.907 37.7757C120.543 37.8105 120.662 37.8744 122.208 39.0067C127.472 42.8619 134.366 47.7995 135.848 48.7757L137.566 49.9073L139.634 50.1334C144.827 50.7014 151.927 51.4028 152.107 51.3655C152.221 51.342 151.503 50.8354 150.423 50.1773C149.387 49.5464 145.966 47.4435 142.82 45.504C139.675 43.5646 134.051 40.1488 130.323 37.9134L123.545 33.849L119.962 34.6385Z" fill="white"/>
<path d="M162.442 42.6579C158.478 41.2048 146.704 37.0269 136.051 33.2939L132.157 31.9291L125.615 33.4506L127.358 34.3831C129.258 35.399 135.535 38.4247 143.432 42.1307C146.198 43.4291 149.354 44.9193 150.443 45.4423C152.387 46.375 152.443 46.391 153.343 46.2804C153.849 46.2183 155.685 45.9941 157.424 45.782C159.163 45.5701 161.933 45.2082 163.578 44.9782C165.223 44.748 166.707 44.5415 166.875 44.5192C167.062 44.4944 167.12 44.4398 167.024 44.3791C166.937 44.3243 164.876 43.5497 162.442 42.6579Z" fill="white"/>
<path d="M169.879 30.869C161.581 29.361 154.104 28.0166 151.757 27.6107L150.384 27.3731L144.971 28.8394C136.932 31.0173 136.304 31.2006 136.496 31.315C136.917 31.5657 153.251 35.9299 161.07 37.881C162.522 38.2432 163.831 38.5717 163.979 38.6111C164.127 38.6503 165.385 38.2743 166.775 37.7752C170.909 36.2907 179.955 32.9167 179.998 32.8436C180.059 32.7398 178.508 32.437 169.879 30.869Z" fill="white"/>
<path d="M119.962 34.6385C117.99 35.0727 113.2 36.1026 109.315 36.9273L102.253 38.4266L102.72 39.0917C104.671 41.8693 106.65 43.8434 109.114 45.4691L110.785 46.5717L114.969 47.4563C117.27 47.9429 119.131 48.266 119.104 48.1743C119.078 48.0826 118.73 47.6498 118.332 47.2123C116.612 45.3223 112.786 40.1463 113.059 40.0776C113.1 40.0673 114.167 40.8829 115.431 41.8903C119.177 44.8758 121.96 46.9612 123.129 47.6572C124.346 48.3824 126.229 49.1225 130.375 50.5057C131.902 51.0153 133.19 51.4495 133.236 51.4707C133.837 51.7455 124.806 42.8549 120.009 38.4495L119.236 37.7389L119.907 37.7757C120.543 37.8105 120.662 37.8744 122.208 39.0067C127.472 42.8619 134.366 47.7995 135.848 48.7757L137.566 49.9073L139.634 50.1334C144.827 50.7014 151.927 51.4028 152.107 51.3655C152.221 51.342 151.503 50.8354 150.423 50.1773C149.387 49.5464 145.966 47.4435 142.82 45.504C139.675 43.5646 134.051 40.1488 130.323 37.9134L123.545 33.849L119.962 34.6385Z" fill="white"/>
<path d="M162.442 42.6579C158.478 41.2048 146.704 37.0269 136.051 33.2939L132.157 31.9291L125.615 33.4506L127.358 34.3831C129.258 35.399 135.535 38.4247 143.432 42.1307C146.198 43.4291 149.354 44.9193 150.443 45.4423C152.387 46.375 152.443 46.391 153.343 46.2804C153.849 46.2183 155.685 45.9941 157.424 45.782C159.163 45.5701 161.933 45.2082 163.578 44.9782C165.223 44.748 166.707 44.5415 166.875 44.5192C167.062 44.4944 167.12 44.4398 167.024 44.3791C166.937 44.3243 164.876 43.5497 162.442 42.6579Z" fill="white"/>
<path d="M169.879 30.869C161.581 29.361 154.104 28.0166 151.757 27.6107L150.384 27.3731L144.971 28.8394C136.932 31.0173 136.304 31.2006 136.496 31.315C136.917 31.5657 153.251 35.9299 161.07 37.881C162.522 38.2432 163.831 38.5717 163.979 38.6111C164.127 38.6503 165.385 38.2743 166.775 37.7752C170.909 36.2907 179.955 32.9167 179.998 32.8436C180.059 32.7398 178.508 32.437 169.879 30.869Z" fill="white"/>
<path d="M119.258 69.0127L115.528 66.7627L101.352 60.7628L91.6529 57.0129L93.1451 52.513L90.9068 49.5131V42.7632L99.1138 39.7633L102.844 38.2633L108.067 46.5131L119.258 49.5131L116.274 54.013L123.735 60.7628L138.656 66.0127L136.418 67.5127L128.211 73.5126L123.735 75.0125L119.258 69.0127Z" fill="white"/>
</svg>
